@startuml
skinparam monochrome true
skinparam packageStyle rectangle
skinparam shadowing false

skinparam classAttributeIconSize 0
hide circle
hide methods

title Domain Model

class MusgoSublime {
}
class MediumSizedPark {
}
class LargeSizedPark {
}
class Garden {
}
class GreenSpace {
}

class Organization {
}

class FleetManager {
    name
}
class HumanResourcesManager {
    name
}
class GreenSpaceManager {
    name
}
class GreenSpaceUser {
    name
}

class Equipment {
}
class Machine {
}
class Vehicle {
    brand
    model
    tare
    grossWeight
    currentKm
    registerDate
    acquisitionDate
    maintenanceCheckUpFrequency
    plateNumber
    type
}
class CheckUp {
    CurrentKMS
    ID
    CheckUpDate
}
class Type {
    passengersOrMixed
    lightOrHeavy
    openBoxOrClosedVansOrTrucks
}

class Job {
    name
}
class Collaborator {
    name
    birthday
    admissionDate
    address
    phoneNumber
    email
    IDDocType
    IDNumber
}
class Skill {
    name
}
class Team {
    maxSize
    numberOfCollaborators
    skillsNeeded
}

class Agenda {
}
class Task {
}

MusgoSublime "1" ---- "1" Organization : is a >
MusgoSublime "1" -- "1..*" GreenSpace : manages >
MediumSizedPark "1" -- "1" GreenSpace : is a >
Garden "1" -- "1" GreenSpace : is a >
LargeSizedPark "1" -- "1" GreenSpace : is a >
Organization "1" -- "1" FleetManager : has >
Organization "1" -- "1" HumanResourcesManager : has >
Organization "1" -- "1" GreenSpaceManager : has >
Organization "1" -- "1" GreenSpaceUser : has >
Organization "1" --- "1" Agenda : owns >
Collaborator "0..*" -- "1" Job : has >
Collaborator "0..*" -- "1..*" Skill : has >
HumanResourcesManager "1" -- "1" Job : selects  >
HumanResourcesManager "1" -- "1..*" Skill : selects  >
HumanResourcesManager "1" -- "1..*" Job : register  >
Job "1" -- "0..*" Collaborator : assigned to >
Skill "1..*" -- "0..*" Collaborator : assigned to >
HumanResourcesManager "1" -- "1..*" Collaborator : register >
HumanResourcesManager "1" -- "1..*" Skill : register >
HumanResourcesManager "1" -- "1..*" Team : generates >
FleetManager "1" -- "1..*" Vehicle : register >
FleetManager "1" -- "1..*" Equipment : manages >
FleetManager "1" -- "1..*" Machine : manages >
FleetManager "1" - "1..*" CheckUp : register >
Vehicle "0..*" -- "1" CheckUp : need >
Vehicle "0..*" -- "1" Type : cataloged as >
Team "1" -- "2..*" Collaborator : has >
Task "1" -- "1..*" Skill : need >
Agenda "1" -- "0..*" Task : has >
Task "1" -- "1" Team : assigned to >

@enduml


