@startuml
skinparam monochrome true
skinparam packageStyle rectangle
skinparam shadowing false

skinparam classAttributeIconSize 0
hide circle
hide methods

title Domain Model

class MediumSizedPark {
}
class LargeSizedPark {
}
class Garden {
}
class GreenSpace {
}

class Organization {
}

class FleetManager {
    name
}
class HumanResourcesManager {
    name
}
class GreenSpaceManager {
    name
}
class GreenSpaceUser {
    name
}

class Equipment {
}
class Machine {
}
class Vehicle {
    brand
    model
    tare
    grossWeight
    currentKm
    registerDate
    acquisitionDate
    maintenanceCheckUpFrequency
    plateNumber
}
class CheckUp {
    vehicle
    date
    kms
}
class VehicleType {
    typeTransport
    packageWeight
    transport
}

class Job {
    name
    description
}
class Collaborator {
    name
    birthday
    admissionDate
    address
    phoneNumber
    email
    IDDocType
    IDNumber
}
class Skill {
    name
}
class GenerateTeam {
    minSize
    maxSize
    skillsNeeded
}

class Task {
}

Organization "1" -- "1..*" GreenSpace : manages >
MediumSizedPark "1" -- "1" GreenSpace : is a >
Garden "1" -- "1" GreenSpace : is a >
LargeSizedPark "1" -- "1" GreenSpace : is a >
Organization "1" -- "1..*" FleetManager : has >
Organization "1" -- "1..*" HumanResourcesManager : has >
Organization "1" -- "1" GreenSpaceManager : has >
Organization "1" -- "1..*" GreenSpaceUser : has >
Collaborator "0..*" -- "1" Job : has >
Collaborator "0..*" -- "1..*" Skill : has >
HumanResourcesManager "1" -- "1" Job : selects  >
HumanResourcesManager "1" -- "1..*" Skill : selects  >
HumanResourcesManager "1" -- "1..*" Job : register  >
Job "1" -- "0..*" Collaborator : assigned to >
Skill "1..*" -- "0..*" Collaborator : assigned to >
HumanResourcesManager "1" -- "1..*" Collaborator : register >
HumanResourcesManager "1" -- "1..*" Skill : register >
HumanResourcesManager "1" -- "1..*" GenerateTeam : generates >
FleetManager "1" -- "1..*" Vehicle : register >
FleetManager "1" -- "1..*" Equipment : manages >
FleetManager "1" -- "1..*" Machine : manages >
FleetManager "1" - "1..*" CheckUp : register >
Vehicle "0..*" -- "1" CheckUp : need >
Vehicle "0..*" -- "1" VehicleType : cataloged as >
GenerateTeam "1" -- "2..*" Collaborator : has >
Task "1" -- "1..*" Skill : need >
Organization "1" -- "0..*" Task : has >
Task "1..*" -- "1" GenerateTeam : assigned to >

@enduml


